<svg viewBox="0 0 600 400" xmlns="http://www.w3.org/2000/svg">
<g transform="translate(54, 364)">
<g>
<path d="M0,-260 L0,-260 L72.85714,-220 L145.71428,-20 L218.57143,-260 L291.42856,-100 L364.2857,-140 L437.14285,-340 L510,-20" fill="none" stroke="#113355" stroke-linejoin="round" stroke-width="2"/>
</g>
<g>
<path d="M0,-170 L0,-170 L72.85714,0 L145.71428,-10 L218.57143,-60 L291.42856,-20 L364.2857,-20 L437.14285,-20 L510,-20" fill="none" stroke="#DD3355" stroke-linejoin="round" stroke-width="2"/>
</g>
<g>
<rect fill="#DD3355" height="10" width="10" x="-5" y="-245"/>
<rect fill="#DD3355" height="10" width="10" x="67.85714285714286" y="-245"/>
<rect fill="#DD3355" height="10" width="10" x="140.71428571428572" y="-145"/>
<rect fill="#DD3355" height="10" width="10" x="213.57142857142858" y="-145"/>
<rect fill="#DD3355" height="10" width="10" x="286.42857142857144" y="-125"/>
<rect fill="#DD3355" height="10" width="10" x="359.2857142857143" y="-125"/>
<rect fill="#DD3355" height="10" width="10" x="432.14285714285717" y="-185"/>
<rect fill="#DD3355" height="10" width="10" x="505" y="-185"/>
</g>
<g>
<g>
<line stroke="black" stroke-width="1" x1="0" x2="0" y1="0" y2="10"/>
<line stroke="black" stroke-width="1" x1="145.71428571428572" x2="145.71428571428572" y1="0" y2="10"/>
<line stroke="black" stroke-width="1" x1="291.42857142857144" x2="291.42857142857144" y1="0" y2="10"/>
<line stroke="black" stroke-width="1" x1="437.14285714285717" x2="437.14285714285717" y1="0" y2="10"/>
</g>
<line stroke="black" stroke-width="1" x1="0" x2="510" y1="0" y2="0"/>
<g>
<text font-size="12" text-anchor="middle" x="0" y="20">
0
</text>
<text font-size="12" text-anchor="middle" x="145.71428571428572" y="20">
2
</text>
<text font-size="12" text-anchor="middle" x="291.42857142857144" y="20">
4
</text>
<text font-size="12" text-anchor="middle" x="437.14285714285717" y="20">
6
</text>
</g>
<text font-size="12" text-anchor="middle" x="255" y="30">
Йекс
</text>
</g>
<g>
<g>
<line stroke="black" stroke-width="1" x1="0" x2="-10" y1="-20" y2="-20"/>
<line stroke="black" stroke-width="1" x1="0" x2="-10" y1="-100" y2="-100"/>
<line stroke="black" stroke-width="1" x1="0" x2="-10" y1="-180" y2="-180"/>
<line stroke="black" stroke-width="1" x1="0" x2="-10" y1="-260" y2="-260"/>
<line stroke="black" stroke-width="1" x1="0" x2="-10" y1="-340" y2="-340"/>
</g>
<line stroke="black" stroke-width="1" x1="0" x2="0" y1="0" y2="-340"/>
<g>
<text dominant-baseline="middle" font-size="12" text-anchor="end" x="-15" y="-20">
0
</text>
<text dominant-baseline="middle" font-size="12" text-anchor="end" x="-15" y="-100">
2
</text>
<text dominant-baseline="middle" font-size="12" text-anchor="end" x="-15" y="-180">
4
</text>
<text dominant-baseline="middle" font-size="12" text-anchor="end" x="-15" y="-260">
6
</text>
<text dominant-baseline="middle" font-size="12" text-anchor="end" x="-15" y="-340">
8
</text>
</g>
<text font-size="12" text-anchor="middle" transform="rotate(-90 -30 -170)" x="-30" y="-182">
Уигрек
</text>
</g>
</g>
</svg>