<svg viewBox="0 0 600 400" xmlns="http://www.w3.org/2000/svg">
<g transform="translate(54, 364)">
<g>
<path d="M0,-42.5 L0,-42.5 L72.85714,-85 L145.71428,-127.5 L218.57143,-170 L291.42856,-212.5 L364.2857,-255 L437.14285,-297.5 L510,-340" fill="none" stroke="#113355" stroke-linejoin="round" stroke-width="2"/>
</g>
<g>
<path d="M0,-191.25 L0,-191.25 L72.85714,-85 L145.71428,-42.5 L218.57143,0 L291.42856,-21.25 L364.2857,0 L437.14285,0 L510,0" fill="none" stroke="#DD3355" stroke-linejoin="round" stroke-width="2"/>
</g>
<g>
<rect fill="#DD3355" height="10" width="10" x="-5" y="-47.5"/>
<rect fill="#DD3355" height="10" width="10" x="67.85714285714286" y="-90"/>
<rect fill="#DD3355" height="10" width="10" x="140.71428571428572" y="-132.5"/>
<rect fill="#DD3355" height="10" width="10" x="213.57142857142858" y="-175"/>
<rect fill="#DD3355" height="10" width="10" x="286.42857142857144" y="-217.5"/>
<rect fill="#DD3355" height="10" width="10" x="359.2857142857143" y="-260"/>
<rect fill="#DD3355" height="10" width="10" x="432.14285714285717" y="-302.5"/>
<rect fill="#DD3355" height="10" width="10" x="505" y="-345"/>
</g>
<g>
<g>
<line stroke="black" stroke-width="1" x1="0" x2="0" y1="0" y2="10"/>
<line stroke="black" stroke-width="1" x1="145.71428571428572" x2="145.71428571428572" y1="0" y2="10"/>
<line stroke="black" stroke-width="1" x1="291.42857142857144" x2="291.42857142857144" y1="0" y2="10"/>
<line stroke="black" stroke-width="1" x1="437.14285714285717" x2="437.14285714285717" y1="0" y2="10"/>
</g>
<line stroke="black" stroke-width="1" x1="0" x2="510" y1="0" y2="0"/>
<g>
<text font-size="12" text-anchor="middle" x="0" y="20">
0
</text>
<text font-size="12" text-anchor="middle" x="145.71428571428572" y="20">
2
</text>
<text font-size="12" text-anchor="middle" x="291.42857142857144" y="20">
4
</text>
<text font-size="12" text-anchor="middle" x="437.14285714285717" y="20">
6
</text>
</g>
<text font-size="12" text-anchor="middle" x="255" y="30">
Йекс
</text>
</g>
<g>
<g>
<line stroke="black" stroke-width="1" x1="0" x2="-10" y1="0" y2="0"/>
<line stroke="black" stroke-width="1" x1="0" x2="-10" y1="-85" y2="-85"/>
<line stroke="black" stroke-width="1" x1="0" x2="-10" y1="-170" y2="-170"/>
<line stroke="black" stroke-width="1" x1="0" x2="-10" y1="-255" y2="-255"/>
<line stroke="black" stroke-width="1" x1="0" x2="-10" y1="-340" y2="-340"/>
</g>
<line stroke="black" stroke-width="1" x1="0" x2="0" y1="0" y2="-340"/>
<g>
<text dominant-baseline="middle" font-size="12" text-anchor="end" x="-15" y="0">
0
</text>
<text dominant-baseline="middle" font-size="12" text-anchor="end" x="-15" y="-85">
2
</text>
<text dominant-baseline="middle" font-size="12" text-anchor="end" x="-15" y="-170">
4
</text>
<text dominant-baseline="middle" font-size="12" text-anchor="end" x="-15" y="-255">
6
</text>
<text dominant-baseline="middle" font-size="12" text-anchor="end" x="-15" y="-340">
8
</text>
</g>
<text font-size="12" text-anchor="middle" transform="rotate(-90 -30 -170)" x="-30" y="-182">
Уигрек
</text>
</g>
</g>
</svg>